<?xml version="1.0" encoding="UTF-8" standalone="no"?>
<!-- Created with Inkscape (http://www.inkscape.org/) -->

<svg
   xmlns:ns0="http://www.iki.fi/pav/software/textext/"
   xmlns:dc="http://purl.org/dc/elements/1.1/"
   xmlns:cc="http://creativecommons.org/ns#"
   xmlns:rdf="http://www.w3.org/1999/02/22-rdf-syntax-ns#"
   xmlns:svg="http://www.w3.org/2000/svg"
   xmlns="http://www.w3.org/2000/svg"
   xmlns:sodipodi="http://sodipodi.sourceforge.net/DTD/sodipodi-0.dtd"
   xmlns:inkscape="http://www.inkscape.org/namespaces/inkscape"
   sodipodi:docname="New document 1"
   inkscape:version="0.48.4 r9939"
   version="1.1"
   id="svg2"
   height="533.5625"
   width="513.59375">
  <sodipodi:namedview
     id="base"
     pagecolor="#ffffff"
     bordercolor="#666666"
     borderopacity="1.0"
     inkscape:pageopacity="0.0"
     inkscape:pageshadow="2"
     inkscape:zoom="0.35"
     inkscape:cx="339.47349"
     inkscape:cy="276.18767"
     inkscape:document-units="px"
     inkscape:current-layer="layer1"
     showgrid="false"
     inkscape:window-width="1920"
     inkscape:window-height="1032"
     inkscape:window-x="0"
     inkscape:window-y="24"
     inkscape:window-maximized="1"
     fit-margin-top="0"
     fit-margin-left="0"
     fit-margin-right="0"
     fit-margin-bottom="0" />
  <defs
     id="defs4" />
  <metadata
     id="metadata7">
    <rdf:RDF>
      <cc:Work
         rdf:about="">
        <dc:format>image/svg+xml</dc:format>
        <dc:type
           rdf:resource="http://purl.org/dc/dcmitype/StillImage" />
        <dc:title></dc:title>
      </cc:Work>
    </rdf:RDF>
  </metadata>
  <g
     id="layer1"
     inkscape:groupmode="layer"
     inkscape:label="Layer 1"
     transform="translate(-116.0625,-219.875)">
    <path
       d="m 617.14287,486.64789 c 0,140.43812 -109.37044,254.28572 -244.28572,254.28572 -134.91528,0 -244.28572,-113.8476 -244.28572,-254.28572 0,-140.43813 109.37044,-254.28572 244.28572,-254.28572 134.91528,0 244.28572,113.84759 244.28572,254.28572 z"
       sodipodi:ry="254.28572"
       sodipodi:rx="244.28572"
       sodipodi:cy="486.64789"
       sodipodi:cx="372.85715"
       id="path2989"
       style="fill:#ffffff;fill-opacity:1;stroke:#000000;stroke-width:25;stroke-miterlimit:4;stroke-dasharray:none"
       sodipodi:type="arc" />
    <rect
       ry="30"
       rx="30"
       y="313.07648"
       x="246.78572"
       height="358.57144"
       width="252.14285"
       id="rect3759"
       style="fill:#000000;fill-opacity:1;stroke:#000000;stroke-width:20;stroke-linejoin:round;stroke-miterlimit:4;stroke-opacity:1;stroke-dasharray:none;stroke-dashoffset:0" />
    <rect
       ry="8.0198936"
       rx="7.8995638"
       y="332.20831"
       x="264.66547"
       height="42.736263"
       width="216.38333"
       id="rect3761"
       style="fill:#ffffff;fill-opacity:1;stroke:#ffffff;stroke-width:20.83516693;stroke-linejoin:round;stroke-miterlimit:4;stroke-opacity:1;stroke-dasharray:none;stroke-dashoffset:0" />
    <rect
       ry="1.390542"
       rx="1.390542"
       y="425.79074"
       x="265.8335"
       height="30"
       width="30"
       id="rect3763"
       style="fill:#ffffff;fill-opacity:1;stroke:#ffffff;stroke-width:13.90541935;stroke-linejoin:round;stroke-miterlimit:4;stroke-opacity:1;stroke-dasharray:none;stroke-dashoffset:0" />
    <rect
       ry="1.390542"
       rx="1.390542"
       y="425.79074"
       x="327.18259"
       height="30"
       width="30"
       id="rect3763-5"
       style="fill:#ffffff;fill-opacity:1;stroke:#ffffff;stroke-width:13.90541935;stroke-linejoin:round;stroke-miterlimit:4;stroke-opacity:1;stroke-dasharray:none;stroke-dashoffset:0" />
    <rect
       ry="1.390542"
       rx="1.390542"
       y="425.79074"
       x="388.53171"
       height="30"
       width="30"
       id="rect3763-3"
       style="fill:#ffffff;fill-opacity:1;stroke:#ffffff;stroke-width:13.90541935;stroke-linejoin:round;stroke-miterlimit:4;stroke-opacity:1;stroke-dasharray:none;stroke-dashoffset:0" />
    <rect
       ry="1.390542"
       rx="1.390542"
       y="425.79074"
       x="449.8808"
       height="30"
       width="30"
       id="rect3763-56"
       style="fill:#ffffff;fill-opacity:1;stroke:#ffffff;stroke-width:13.90541935;stroke-linejoin:round;stroke-miterlimit:4;stroke-opacity:1;stroke-dasharray:none;stroke-dashoffset:0" />
    <rect
       ry="1.390542"
       rx="1.390542"
       y="486.55267"
       x="265.8335"
       height="30"
       width="30"
       id="rect3763-9"
       style="fill:#ffffff;fill-opacity:1;stroke:#ffffff;stroke-width:13.90541935;stroke-linejoin:round;stroke-miterlimit:4;stroke-opacity:1;stroke-dasharray:none;stroke-dashoffset:0" />
    <rect
       ry="1.390542"
       rx="1.390542"
       y="486.55267"
       x="327.18259"
       height="30"
       width="30"
       id="rect3763-5-1"
       style="fill:#ffffff;fill-opacity:1;stroke:#ffffff;stroke-width:13.90541935;stroke-linejoin:round;stroke-miterlimit:4;stroke-opacity:1;stroke-dasharray:none;stroke-dashoffset:0" />
    <rect
       ry="1.390542"
       rx="1.390542"
       y="486.55267"
       x="388.53171"
       height="30"
       width="30"
       id="rect3763-3-2"
       style="fill:#ffffff;fill-opacity:1;stroke:#ffffff;stroke-width:13.90541935;stroke-linejoin:round;stroke-miterlimit:4;stroke-opacity:1;stroke-dasharray:none;stroke-dashoffset:0" />
    <rect
       ry="1.390542"
       rx="1.390542"
       y="486.55267"
       x="449.8808"
       height="30"
       width="30"
       id="rect3763-56-7"
       style="fill:#ffffff;fill-opacity:1;stroke:#ffffff;stroke-width:13.90541935;stroke-linejoin:round;stroke-miterlimit:4;stroke-opacity:1;stroke-dasharray:none;stroke-dashoffset:0" />
    <rect
       ry="1.390542"
       rx="1.390542"
       y="547.31458"
       x="265.8335"
       height="30"
       width="30"
       id="rect3763-93"
       style="fill:#ffffff;fill-opacity:1;stroke:#ffffff;stroke-width:13.90541935;stroke-linejoin:round;stroke-miterlimit:4;stroke-opacity:1;stroke-dasharray:none;stroke-dashoffset:0" />
    <rect
       ry="1.390542"
       rx="1.390542"
       y="547.31458"
       x="327.18259"
       height="30"
       width="30"
       id="rect3763-5-6"
       style="fill:#ffffff;fill-opacity:1;stroke:#ffffff;stroke-width:13.90541935;stroke-linejoin:round;stroke-miterlimit:4;stroke-opacity:1;stroke-dasharray:none;stroke-dashoffset:0" />
    <rect
       ry="1.390542"
       rx="1.390542"
       y="547.31458"
       x="388.53171"
       height="30"
       width="30"
       id="rect3763-3-0"
       style="fill:#ffffff;fill-opacity:1;stroke:#ffffff;stroke-width:13.90541935;stroke-linejoin:round;stroke-miterlimit:4;stroke-opacity:1;stroke-dasharray:none;stroke-dashoffset:0" />
    <rect
       ry="1.390542"
       rx="1.390542"
       y="608.07648"
       x="265.8335"
       height="30"
       width="30"
       id="rect3763-1"
       style="fill:#ffffff;fill-opacity:1;stroke:#ffffff;stroke-width:13.90541935;stroke-linejoin:round;stroke-miterlimit:4;stroke-opacity:1;stroke-dasharray:none;stroke-dashoffset:0" />
    <rect
       ry="1.390542"
       rx="1.390542"
       y="608.07648"
       x="327.18259"
       height="30"
       width="30"
       id="rect3763-5-8"
       style="fill:#ffffff;fill-opacity:1;stroke:#ffffff;stroke-width:13.90541935;stroke-linejoin:round;stroke-miterlimit:4;stroke-opacity:1;stroke-dasharray:none;stroke-dashoffset:0" />
    <rect
       ry="1.390542"
       rx="1.390542"
       y="608.07648"
       x="388.53171"
       height="30"
       width="30"
       id="rect3763-3-7"
       style="fill:#ffffff;fill-opacity:1;stroke:#ffffff;stroke-width:13.90541935;stroke-linejoin:round;stroke-miterlimit:4;stroke-opacity:1;stroke-dasharray:none;stroke-dashoffset:0" />
    <rect
       ry="3.8807809"
       rx="1.1146668"
       y="550.68066"
       x="452.85669"
       height="83.72522"
       width="24.048182"
       id="rect3763-56-6-2"
       style="fill:#ffffff;fill-opacity:1;stroke:#ffffff;stroke-width:20.79850388;stroke-linejoin:round;stroke-miterlimit:4;stroke-opacity:1;stroke-dasharray:none;stroke-dashoffset:0" />
    <g
       style="font-style:normal;font-variant:normal;font-weight:normal;font-stretch:normal;letter-spacing:normal;word-spacing:normal;text-anchor:start;fill:none;stroke:#000000;stroke-linecap:butt;stroke-linejoin:miter;stroke-miterlimit:10.43299961;stroke-opacity:1;stroke-dasharray:none;stroke-dashoffset:0"
       id="content"
       transform="matrix(4.9537624,0,0,-4.9537624,-660.88022,4112.2905)"
       xml:space="preserve"
       stroke-miterlimit="10.433"
       font-style="normal"
       font-variant="normal"
       font-weight="normal"
       font-stretch="normal"
       font-size-adjust="none"
       letter-spacing="normal"
       word-spacing="normal"
       ns0:text="$\\mathcal{L}$"
       ns0:preamble="/home/pat/Documents/Talks/2016/LCDM Jamboree/preamble.tex"><path
         style="fill:#000000;stroke-width:0"
         inkscape:connector-curvature="0"
         d="m 229.96,708.54 0,0 0,0 0,0 -0.01,0 0,0 0,0 0,0 -0.01,0 0,0.01 0,0 0,0 -0.01,0 0,0 0,0 -0.01,0 0,0 -0.01,0.01 0,0 -0.01,0 0,0 -0.01,0 0,0 0,0 -0.01,0 0,0 0,0 -0.01,0 0,0 0,0.01 c -0.14,0 -0.39,-0.11 -0.55,-0.22 -0.28,-0.18 -0.3,-0.24 -0.36,-0.41 -0.06,-0.16 -0.14,-0.29 -0.14,-0.3 -0.09,-0.12 -0.11,-0.12 -0.26,-0.12 -0.43,0 -0.96,0.14 -1.35,0.25 -0.5,0.15 -1.08,0.32 -1.61,0.32 -0.23,0 -0.27,-0.01 -0.38,-0.04 0.53,0.77 0.72,1.54 0.82,1.94 0.19,0.74 0.66,2.59 1.36,3.3 0.15,0.16 0.21,0.22 0.54,0.22 0.6,0 0.69,-0.57 0.69,-0.82 0,-0.16 -0.04,-0.34 -0.04,-0.37 0,-0.02 0,-0.07 0.07,-0.07 0.16,0 0.43,0.12 0.67,0.3 0.15,0.12 0.26,0.2 0.26,0.65 0,0.45 -0.21,0.93 -0.85,0.93 -0.81,0 -1.76,-0.58 -2.22,-1.13 -0.7,-0.85 -1.04,-1.9 -1.45,-3.49 -0.37,-1.49 -0.95,-2.06 -0.97,-2.09 -0.32,-0.28 -0.36,-0.41 -0.36,-0.45 0,-0.02 0.02,-0.06 0.09,-0.06 0.18,0 0.68,0.23 0.93,0.56 0.3,-0.01 0.58,-0.01 1.51,-0.29 0.34,-0.09 0.97,-0.27 1.5,-0.27 0.73,0 1.97,0.66 2.19,1.63 z"
         id="path4048" /></g>    <g
       style="font-style:normal;font-variant:normal;font-weight:normal;font-stretch:normal;letter-spacing:normal;word-spacing:normal;text-anchor:start;fill:none;stroke:#000000;stroke-linecap:butt;stroke-linejoin:miter;stroke-miterlimit:10.43299961;stroke-opacity:1;stroke-dasharray:none;stroke-dashoffset:0"
       ns0:preamble="/home/pat/Documents/Talks/2016/LCDM Jamboree/preamble.tex"
       ns0:text="$s$"
       word-spacing="normal"
       letter-spacing="normal"
       font-size-adjust="none"
       font-stretch="normal"
       font-weight="normal"
       font-variant="normal"
       font-style="normal"
       stroke-miterlimit="10.433"
       xml:space="preserve"
       transform="matrix(4.1601116,0,0,-4.1601116,-474.3892,3391.4331)"
       id="g4123"><path
         id="path4125"
         d="m 227.32,710.84 -0.02,0 -0.03,0 -0.02,-0.01 -0.03,0 -0.02,-0.01 -0.03,-0.01 -0.02,0 -0.02,-0.01 -0.02,-0.01 -0.02,-0.01 -0.02,-0.02 -0.02,-0.01 -0.02,-0.01 -0.02,-0.02 -0.01,-0.01 -0.02,-0.02 -0.02,-0.01 -0.01,-0.02 -0.01,-0.01 -0.02,-0.02 -0.01,-0.02 -0.01,-0.02 -0.01,-0.02 -0.01,-0.02 -0.01,-0.02 0,-0.02 -0.01,-0.02 -0.01,-0.02 0,-0.02 0,-0.02 0,-0.02 0,-0.02 c 0,-0.14 0.08,-0.29 0.3,-0.29 0.22,0 0.46,0.17 0.46,0.56 0,0.45 -0.43,0.86 -1.18,0.86 -1.32,0 -1.69,-1.02 -1.69,-1.45 0,-0.78 0.74,-0.93 1.03,-0.99 0.52,-0.1 1.03,-0.21 1.03,-0.75 0,-0.26 -0.22,-1.1 -1.42,-1.1 -0.14,0 -0.9,0 -1.13,0.53 0.38,-0.05 0.63,0.25 0.63,0.53 0,0.23 -0.17,0.35 -0.37,0.35 -0.26,0 -0.56,-0.21 -0.56,-0.66 0,-0.57 0.57,-0.96 1.42,-0.96 1.61,0 2,1.2 2,1.64 0,0.36 -0.19,0.61 -0.31,0.73 -0.27,0.28 -0.55,0.33 -0.99,0.42 -0.36,0.08 -0.76,0.15 -0.76,0.59 0,0.29 0.24,0.9 1.12,0.9 0.25,0 0.74,-0.07 0.89,-0.46 z"
         inkscape:connector-curvature="0"
         style="fill:#000000;stroke-width:0" /></g>    <path
       id="path4209"
       d="m 465.21359,487.44988 0,0 0,0 0,0 0,0 0,-0.0416 0,0 0,0 0,-0.0416 0,0 0,-0.0416 0,0 -0.0416,0 0,-0.0416 0,0 0,-0.0416 0,0 -0.0416,-0.0416 0,0 0,-0.0416 -0.0416,0 0,-0.0416 0,0 -0.0416,0 0,0 0,-0.0416 -0.0416,0 0,0 0,0 0,0 -0.0416,-0.0416 0,0 -0.0416,0 0,0 0,0 -0.0416,0 0,0 -0.0416,0 0,-0.0416 -0.0416,0 0,0 -0.0416,0 0,0 -0.0416,0 0,0 -0.0416,0 c -0.95683,0 -3.95211,0.3328 -5.03374,0.41601 -0.33281,0.0416 -0.79042,0.0832 -0.79042,0.83202 0,0.49921 0.37441,0.49921 0.99843,0.49921 1.95525,0 2.03845,0.29121 2.03845,0.70722 0,0.29121 -0.37441,1.66405 -0.54081,2.53767 l -3.41129,13.47876 c -0.49922,2.08006 -0.66562,2.74567 -0.66562,4.16011 0,3.95211 2.20486,6.48978 5.24174,6.48978 v -0.87363 c -1.41444,0 -2.74568,-1.12323 -2.74568,-4.20171 0,-0.79042 0,-1.53924 0.66562,-4.16011 l 0.91523,-3.8273 c 0.208,-0.87363 0.208,-0.95683 0.58241,-1.41444 2.03846,-2.70407 3.91051,-3.32809 4.99214,-3.32809 1.49764,0 2.62087,1.24803 2.62087,3.9105 0,2.41287 -1.37284,7.1554 -2.12166,8.73624 -1.37284,2.78727 -3.28649,4.28491 -4.90893,4.28491 v 0.87363 c 4.90893,0 9.98427,-6.15697 9.98427,-12.10593 0,-3.7441 -2.20486,-6.61458 -5.49135,-6.61458 -1.91365,0 -3.6193,1.20644 -4.86733,2.49607 z"
       inkscape:connector-curvature="0"
       style="font-style:normal;font-variant:normal;font-weight:normal;font-stretch:normal;letter-spacing:normal;word-spacing:normal;text-anchor:start;fill:#000000;fill-opacity:1;fill-rule:evenodd;stroke:#000000;stroke-width:0;stroke-linecap:butt;stroke-linejoin:miter;stroke-miterlimit:10.43299961;stroke-opacity:1;stroke-dasharray:none;stroke-dashoffset:0" />
    <g
       style="font-style:normal;font-variant:normal;font-weight:normal;font-stretch:normal;letter-spacing:normal;word-spacing:normal;text-anchor:start;fill:none;stroke:#000000;stroke-linecap:butt;stroke-linejoin:miter;stroke-miterlimit:10.43299961;stroke-opacity:1;stroke-dasharray:none;stroke-dashoffset:0"
       ns0:preamble="/home/pat/Documents/Talks/2016/LCDM Jamboree/preamble.tex"
       ns0:text="$=$"
       word-spacing="normal"
       letter-spacing="normal"
       font-size-adjust="none"
       font-stretch="normal"
       font-weight="normal"
       font-variant="normal"
       font-style="normal"
       stroke-miterlimit="10.433"
       xml:space="preserve"
       transform="matrix(4.1601116,0,0,-4.1601116,-542.04086,3575.1333)"
       id="g4281"><path
         id="path4283"
         d="m 230.27,710.37 0.03,0 0.02,0 0.03,0 0.02,0.01 0.01,0 0.02,0 0.01,0 0.02,0 0.01,0 0.01,0.01 0.02,0 0.01,0 0.01,0.01 0.01,0 0.02,0.01 0.01,0 0.01,0.01 0.01,0.01 0.01,0.01 0.01,0.01 0,0.01 0.01,0 0,0.01 0,0 0.01,0.01 0,0.01 0,0 0,0.01 0.01,0.01 0,0 0,0.01 0,0.01 0,0.01 0,0.01 0,0 0,0.01 0,0.01 c 0,0.2 -0.18,0.2 -0.32,0.2 h -5.96 c -0.14,0 -0.33,0 -0.33,-0.2 0,-0.2 0.19,-0.2 0.34,-0.2 z"
         inkscape:connector-curvature="0"
         style="fill:#000000;stroke-width:0" /><path
         id="path4285"
         d="m 230.28,708.45 0.01,0 0.01,0 0.03,0 0.03,0 0.01,0 0.02,0 0.01,0 0.01,0 0.02,0 0.01,0.01 0.02,0 0.01,0 0.01,0.01 0.01,0 0.02,0.01 0.01,0 0.01,0.01 0.01,0 0.01,0.01 0.01,0.01 0.01,0.01 0,0 0,0.01 0.01,0.01 0,0 0,0.01 0.01,0 0,0.01 0,0.01 0,0 0.01,0.01 0,0.01 0,0 0,0.01 0,0.01 0,0.01 0,0.01 0,0.01 0,0.01 c 0,0.19 -0.18,0.19 -0.33,0.19 h -5.94 c -0.15,0 -0.34,0 -0.34,-0.19 0,-0.2 0.19,-0.2 0.33,-0.2 z"
         inkscape:connector-curvature="0"
         style="fill:#000000;stroke-width:0" /></g>    <g
       id="g4371"
       transform="matrix(4.1601116,0,0,-4.1601116,-667.71355,3578.8982)"
       xml:space="preserve"
       stroke-miterlimit="10.433"
       font-style="normal"
       font-variant="normal"
       font-weight="normal"
       font-stretch="normal"
       font-size-adjust="none"
       letter-spacing="normal"
       word-spacing="normal"
       ns0:text="$N$"
       ns0:preamble="/home/pat/Documents/Talks/2016/LCDM Jamboree/preamble.tex"
       style="font-style:normal;font-variant:normal;font-weight:normal;font-stretch:normal;letter-spacing:normal;word-spacing:normal;text-anchor:start;fill:none;stroke:#000000;stroke-linecap:butt;stroke-linejoin:miter;stroke-miterlimit:10.43299961;stroke-opacity:1;stroke-dasharray:none;stroke-dashoffset:0"><path
         style="fill:#000000;stroke-width:0"
         inkscape:connector-curvature="0"
         d="m 230.95,712.87 0.02,0.07 0.01,0.04 0.02,0.03 0.01,0.04 0.01,0.03 0.02,0.03 0.01,0.04 0.02,0.03 0.02,0.03 0.02,0.03 0.02,0.03 0.02,0.02 0.02,0.03 0.03,0.03 0.03,0.02 0.03,0.03 0.03,0.02 0.04,0.02 0.03,0.02 0.04,0.02 0.05,0.02 0.04,0.01 0.05,0.02 0.05,0.01 0.05,0.02 0.06,0.01 0.06,0.01 0.06,0.01 0.07,0 0.07,0.01 0.03,0 0.04,0 c 0.05,0 0.17,0.01 0.17,0.2 0,0.01 0,0.11 -0.13,0.11 -0.33,0 -0.68,-0.03 -1.01,-0.03 -0.33,0 -0.68,0.03 -1.01,0.03 -0.06,0 -0.18,0 -0.18,-0.2 0,-0.11 0.1,-0.11 0.18,-0.11 0.57,-0.01 0.68,-0.22 0.68,-0.44 0,-0.02 -0.02,-0.17 -0.03,-0.2 l -1.12,-4.42 -2.2,5.18 c -0.08,0.18 -0.09,0.19 -0.32,0.19 h -1.33 c -0.2,0 -0.29,0 -0.29,-0.2 0,-0.11 0.09,-0.11 0.28,-0.11 0.05,0 0.68,0 0.68,-0.09 l -1.34,-5.33 c -0.1,-0.4 -0.27,-0.72 -1.07,-0.75 -0.06,0 -0.17,-0.01 -0.17,-0.2 0,-0.07 0.05,-0.11 0.13,-0.11 0.32,0 0.67,0.04 0.99,0.04 0.34,0 0.7,-0.04 1.03,-0.04 0.05,0 0.18,0 0.18,0.2 0,0.1 -0.09,0.11 -0.2,0.11 -0.58,0.02 -0.66,0.24 -0.66,0.44 0,0.07 0.01,0.12 0.04,0.23 l 1.32,5.24 c 0.03,-0.06 0.03,-0.08 0.09,-0.18 l 2.47,-5.85 c 0.07,-0.16 0.1,-0.19 0.19,-0.19 0.11,0 0.11,0.04 0.16,0.21 z"
         id="path4373" /></g>    <g
       style="font-style:normal;font-variant:normal;font-weight:normal;font-stretch:normal;letter-spacing:normal;word-spacing:normal;text-anchor:start;fill:none;stroke:#000000;stroke-linecap:butt;stroke-linejoin:miter;stroke-miterlimit:10.43299961;stroke-opacity:1;stroke-dasharray:none;stroke-dashoffset:0"
       ns0:preamble="/home/pat/Documents/Talks/2016/LCDM Jamboree/preamble.tex"
       ns0:text="$1$"
       word-spacing="normal"
       letter-spacing="normal"
       font-size-adjust="none"
       font-stretch="normal"
       font-weight="normal"
       font-variant="normal"
       font-style="normal"
       stroke-miterlimit="10.433"
       xml:space="preserve"
       transform="matrix(4.1601116,0,0,-4.1601116,-659.18532,3396.2588)"
       id="g4576"><path
         style="fill:#000000;stroke-width:0"
         inkscape:connector-curvature="0"
         id="path4578"
         d="m 226.36,713.48 0,0.01 0,0.01 0,0.02 0,0.01 0,0 0,0.01 0,0.01 0,0.01 0,0.01 0,0.01 0,0.01 0,0.01 0,0 -0.01,0.01 0,0.01 0,0 0,0.01 0,0.01 0,0.01 0,0.01 -0.01,0.01 0,0.01 0,0.01 -0.01,0 0,0.01 -0.01,0.01 0,0 -0.01,0.01 -0.01,0 -0.01,0.01 0,0 -0.01,0 0,0 -0.01,0 0,0 -0.01,0 -0.01,0.01 0,0 -0.01,0 -0.01,0 0,0 -0.01,0 -0.01,0 -0.01,0 0,0 -0.01,0 -0.01,0 -0.01,0 -0.01,0 -0.01,0 -0.01,0 -0.01,0 c -0.62,-0.64 -1.49,-0.64 -1.81,-0.64 v -0.3 c 0.2,0 0.78,0 1.3,0.25 v -5.14 c 0,-0.36 -0.03,-0.48 -0.92,-0.48 h -0.32 v -0.31 c 0.35,0.04 1.21,0.04 1.61,0.04 0.4,0 1.26,0 1.61,-0.04 v 0.31 h -0.32 c -0.89,0 -0.92,0.11 -0.92,0.48 z" /></g>    <g
       id="g4699"
       transform="matrix(4.1601116,0,0,-4.1601116,-597.64903,3396.2588)"
       xml:space="preserve"
       stroke-miterlimit="10.433"
       font-style="normal"
       font-variant="normal"
       font-weight="normal"
       font-stretch="normal"
       font-size-adjust="none"
       letter-spacing="normal"
       word-spacing="normal"
       ns0:text="$2$"
       ns0:preamble="/home/pat/Documents/Talks/2016/LCDM Jamboree/preamble.tex"
       style="font-style:normal;font-variant:normal;font-weight:normal;font-stretch:normal;letter-spacing:normal;word-spacing:normal;text-anchor:start;fill:none;stroke:#000000;stroke-linecap:butt;stroke-linejoin:miter;stroke-miterlimit:10.43299961;stroke-opacity:1;stroke-dasharray:none;stroke-dashoffset:0"><path
         style="fill:#000000;stroke-width:0"
         inkscape:connector-curvature="0"
         d="m 227.9,708.85 h -0.25 c -0.05,-0.3 -0.12,-0.73 -0.22,-0.88 -0.07,-0.08 -0.72,-0.08 -0.94,-0.08 h -1.79 l 1.05,1.02 c 1.55,1.37 2.15,1.91 2.15,2.9 0,1.14 -0.9,1.93 -2.11,1.93 -1.12,0 -1.86,-0.91 -1.86,-1.8 0,-0.55 0.5,-0.55 0.53,-0.55 0.17,0 0.51,0.12 0.51,0.52 0,0.26 -0.18,0.52 -0.52,0.52 -0.08,0 -0.1,0 -0.13,-0.01 0.23,0.65 0.76,1.01 1.34,1.01 0.91,0 1.33,-0.8 1.33,-1.62 0,-0.79 -0.49,-1.58 -1.04,-2.19 l -1.91,-2.13 c -0.11,-0.11 -0.11,-0.13 -0.11,-0.37 h 3.69 z"
         id="path4701" /></g>    <g
       style="font-style:normal;font-variant:normal;font-weight:normal;font-stretch:normal;letter-spacing:normal;word-spacing:normal;text-anchor:start;fill:none;stroke:#000000;stroke-linecap:butt;stroke-linejoin:miter;stroke-miterlimit:10.43299961;stroke-opacity:1;stroke-dasharray:none;stroke-dashoffset:0"
       ns0:preamble="/home/pat/Documents/Talks/2016/LCDM Jamboree/preamble.tex"
       ns0:text="$3$"
       word-spacing="normal"
       letter-spacing="normal"
       font-size-adjust="none"
       font-stretch="normal"
       font-weight="normal"
       font-variant="normal"
       font-style="normal"
       stroke-miterlimit="10.433"
       xml:space="preserve"
       transform="matrix(4.1601116,0,0,-4.1601116,-536.2999,3395.822)"
       id="g4820"><path
         style="fill:#000000;stroke-width:0"
         inkscape:connector-curvature="0"
         id="path4822"
         d="m 226.32,710.62 0.07,0.03 0.08,0.03 0.07,0.03 0.07,0.03 0.07,0.04 0.07,0.04 0.06,0.04 0.07,0.04 0.06,0.04 0.06,0.05 0.06,0.05 0.06,0.05 0.05,0.05 0.05,0.05 0.05,0.06 0.05,0.05 0.04,0.06 0.05,0.06 0.04,0.06 0.03,0.06 0.04,0.07 0.03,0.06 0.03,0.07 0.03,0.06 0.02,0.07 0.02,0.07 0.02,0.07 0.01,0.07 0.02,0.07 0,0.07 0.01,0.08 0,0.07 c 0,0.81 -0.87,1.37 -1.83,1.37 -1,0 -1.76,-0.59 -1.76,-1.35 0,-0.33 0.22,-0.52 0.51,-0.52 0.3,0 0.5,0.22 0.5,0.51 0,0.5 -0.46,0.5 -0.61,0.5 0.3,0.48 0.96,0.61 1.32,0.61 0.41,0 0.95,-0.22 0.95,-1.11 0,-0.12 -0.02,-0.7 -0.27,-1.13 -0.3,-0.48 -0.64,-0.51 -0.89,-0.52 -0.08,-0.01 -0.32,-0.03 -0.39,-0.03 -0.08,-0.01 -0.15,-0.02 -0.15,-0.12 0,-0.11 0.07,-0.11 0.24,-0.11 h 0.44 c 0.82,0 1.18,-0.67 1.18,-1.65 0,-1.35 -0.68,-1.64 -1.12,-1.64 -0.43,0 -1.17,0.17 -1.52,0.76 0.35,-0.05 0.65,0.17 0.65,0.55 0,0.35 -0.26,0.55 -0.55,0.55 -0.24,0 -0.56,-0.14 -0.56,-0.57 0,-0.91 0.92,-1.56 2.01,-1.56 1.21,0 2.12,0.9 2.12,1.91 0,0.82 -0.63,1.59 -1.66,1.8 z" /></g>    <g
       id="g4939"
       transform="matrix(4.1601116,0,0,-4.1601116,-658.99812,3457.2496)"
       xml:space="preserve"
       stroke-miterlimit="10.433"
       font-style="normal"
       font-variant="normal"
       font-weight="normal"
       font-stretch="normal"
       font-size-adjust="none"
       letter-spacing="normal"
       word-spacing="normal"
       ns0:text="$4$"
       ns0:preamble="/home/pat/Documents/Talks/2016/LCDM Jamboree/preamble.tex"
       style="font-style:normal;font-variant:normal;font-weight:normal;font-stretch:normal;letter-spacing:normal;word-spacing:normal;text-anchor:start;fill:none;stroke:#000000;stroke-linecap:butt;stroke-linejoin:miter;stroke-miterlimit:10.43299961;stroke-opacity:1;stroke-dasharray:none;stroke-dashoffset:0"><path
         style="fill:#000000;stroke-width:0"
         inkscape:connector-curvature="0"
         d="m 223.71,708.76 h 2.65 v -0.86 c 0,-0.36 -0.02,-0.47 -0.76,-0.47 h -0.21 v -0.31 c 0.41,0.04 0.93,0.04 1.35,0.04 0.41,0 0.94,0 1.35,-0.04 v 0.31 h -0.21 c -0.74,0 -0.76,0.11 -0.76,0.47 v 0.86 h 1 v 0.31 h -1 v 4.52 c 0,0.2 0,0.26 -0.16,0.26 -0.09,0 -0.11,0 -0.2,-0.12 l -3.05,-4.66 h 0.28 l 2.43,3.71 v -3.71 h -2.43 -0.28 z"
         id="path4941" /></g>    <g
       style="font-style:normal;font-variant:normal;font-weight:normal;font-stretch:normal;letter-spacing:normal;word-spacing:normal;text-anchor:start;fill:none;stroke:#000000;stroke-linecap:butt;stroke-linejoin:miter;stroke-miterlimit:10.43299961;stroke-opacity:1;stroke-dasharray:none;stroke-dashoffset:0"
       ns0:preamble="/home/pat/Documents/Talks/2016/LCDM Jamboree/preamble.tex"
       ns0:text="$5$"
       word-spacing="normal"
       letter-spacing="normal"
       font-size-adjust="none"
       font-stretch="normal"
       font-weight="normal"
       font-variant="normal"
       font-style="normal"
       stroke-miterlimit="10.433"
       xml:space="preserve"
       transform="matrix(4.1601116,0,0,-4.1601116,-597.64903,3456.5839)"
       id="g5056"><path
         style="fill:#000000;stroke-width:0"
         inkscape:connector-curvature="0"
         id="path5058"
         d="m 227.9,709.12 0,0.11 -0.01,0.11 -0.01,0.11 -0.02,0.1 -0.02,0.11 -0.02,0.1 -0.03,0.1 -0.04,0.1 -0.03,0.1 -0.04,0.09 -0.05,0.09 -0.05,0.09 -0.05,0.09 -0.05,0.08 -0.06,0.08 -0.06,0.07 -0.07,0.08 -0.07,0.06 -0.07,0.07 -0.07,0.06 -0.08,0.06 -0.08,0.05 -0.08,0.05 -0.08,0.04 -0.09,0.04 -0.09,0.04 -0.09,0.03 -0.09,0.02 -0.1,0.02 -0.09,0.02 -0.1,0 -0.1,0.01 c -0.48,0 -0.91,-0.16 -1.27,-0.51 v 1.94 c 0.2,-0.06 0.53,-0.13 0.85,-0.13 1.23,0 1.92,0.9 1.92,1.03 0,0.06 -0.03,0.11 -0.1,0.11 -0.01,0 -0.03,0 -0.08,-0.03 -0.2,-0.09 -0.68,-0.29 -1.35,-0.29 -0.4,0 -0.86,0.07 -1.32,0.28 -0.08,0.03 -0.1,0.03 -0.12,0.03 -0.1,0 -0.1,-0.08 -0.1,-0.24 v -2.94 c 0,-0.18 0,-0.26 0.14,-0.26 0.07,0 0.09,0.03 0.13,0.09 0.11,0.16 0.47,0.7 1.28,0.7 0.52,0 0.77,-0.46 0.85,-0.64 0.15,-0.36 0.17,-0.75 0.17,-1.25 0,-0.35 0,-0.94 -0.24,-1.36 -0.23,-0.39 -0.6,-0.65 -1.06,-0.65 -0.73,0 -1.29,0.53 -1.46,1.12 0.03,-0.01 0.06,-0.02 0.17,-0.02 0.32,0 0.49,0.25 0.49,0.48 0,0.24 -0.17,0.49 -0.49,0.49 -0.14,0 -0.49,-0.07 -0.49,-0.53 0,-0.85 0.69,-1.81 1.8,-1.81 1.15,0 2.17,0.95 2.17,2.21 z" /></g>    <g
       id="g5171"
       transform="matrix(4.1601116,0,0,-4.1601116,-536.2999,3456.5839)"
       xml:space="preserve"
       stroke-miterlimit="10.433"
       font-style="normal"
       font-variant="normal"
       font-weight="normal"
       font-stretch="normal"
       font-size-adjust="none"
       letter-spacing="normal"
       word-spacing="normal"
       ns0:text="$6$"
       ns0:preamble="/home/pat/Documents/Talks/2016/LCDM Jamboree/preamble.tex"
       style="font-style:normal;font-variant:normal;font-weight:normal;font-stretch:normal;letter-spacing:normal;word-spacing:normal;text-anchor:start;fill:none;stroke:#000000;stroke-linecap:butt;stroke-linejoin:miter;stroke-miterlimit:10.43299961;stroke-opacity:1;stroke-dasharray:none;stroke-dashoffset:0"><path
         style="fill:#000000;stroke-width:0"
         inkscape:connector-curvature="0"
         d="m 224.74,710.38 v 0.24 c 0,2.52 1.24,2.87 1.75,2.87 0.24,0 0.65,-0.06 0.87,-0.4 -0.15,0 -0.54,0 -0.54,-0.44 0,-0.31 0.23,-0.46 0.45,-0.46 0.16,0 0.46,0.09 0.46,0.48 0,0.59 -0.44,1.07 -1.26,1.07 -1.28,0 -2.62,-1.28 -2.62,-3.48 0,-2.65 1.15,-3.35 2.08,-3.35 1.1,0 2.05,0.93 2.05,2.24 0,1.26 -0.89,2.22 -1.99,2.22 l -0.01,-0.23 c 0.16,0 0.62,0 0.92,-0.62 0.18,-0.36 0.18,-0.87 0.18,-1.36 0,-0.48 0,-0.97 -0.17,-1.33 -0.29,-0.6 -0.75,-0.65 -0.98,-0.65 h 0 c -0.63,0 -0.93,0.6 -0.99,0.75 -0.18,0.47 -0.18,1.26 -0.18,1.44 0,0.78 0.32,1.77 1.22,1.77 l 0.01,0.23 c -0.68,0 -1.05,-0.51 -1.25,-0.99 z"
         id="path5173" /></g>    <g
       style="font-style:normal;font-variant:normal;font-weight:normal;font-stretch:normal;letter-spacing:normal;word-spacing:normal;text-anchor:start;fill:none;stroke:#000000;stroke-linecap:butt;stroke-linejoin:miter;stroke-miterlimit:10.43299961;stroke-opacity:1;stroke-dasharray:none;stroke-dashoffset:0"
       ns0:preamble="/home/pat/Documents/Talks/2016/LCDM Jamboree/preamble.tex"
       ns0:text="$7$"
       word-spacing="normal"
       letter-spacing="normal"
       font-size-adjust="none"
       font-stretch="normal"
       font-weight="normal"
       font-variant="normal"
       font-style="normal"
       stroke-miterlimit="10.433"
       xml:space="preserve"
       transform="matrix(4.1601116,0,0,-4.1601116,-659.87174,3517.5539)"
       id="g5284"><path
         style="fill:#000000;stroke-width:0"
         inkscape:connector-curvature="0"
         id="path5286"
         d="m 228.17,713.17 0.01,0.02 0,0.01 0.01,0.01 0.01,0.01 0,0 0.01,0.01 0,0.01 0.01,0.01 0,0.01 0.01,0.01 0,0 0.01,0.01 0,0.01 0,0.01 0,0.01 0.01,0.01 0,0 0,0.01 0,0.01 0,0.01 0,0.01 0,0.01 0.01,0.01 0,0.02 0,0.01 0,0.01 0,0.02 0,0.01 0,0.02 0,0.02 0,0.01 0,0.01 0,0.01 h -2.42 c -1.21,0 -1.23,0.13 -1.27,0.32 h -0.25 l -0.33,-2.05 h 0.25 c 0.03,0.16 0.12,0.79 0.25,0.91 0.07,0.06 0.84,0.06 0.97,0.06 h 2.06 c -0.11,-0.16 -0.89,-1.24 -1.11,-1.57 -0.9,-1.34 -1.23,-2.72 -1.23,-3.74 0,-0.1 0,-0.54 0.46,-0.54 0.46,0 0.46,0.44 0.46,0.54 v 0.51 c 0,0.55 0.03,1.09 0.11,1.63 0.04,0.23 0.18,1.08 0.61,1.7 z" /></g>    <g
       id="g5395"
       transform="matrix(4.1601116,0,0,-4.1601116,-597.64903,3517.3458)"
       xml:space="preserve"
       stroke-miterlimit="10.433"
       font-style="normal"
       font-variant="normal"
       font-weight="normal"
       font-stretch="normal"
       font-size-adjust="none"
       letter-spacing="normal"
       word-spacing="normal"
       ns0:text="$8$"
       ns0:preamble="/home/pat/Documents/Talks/2016/LCDM Jamboree/preamble.tex"
       style="font-style:normal;font-variant:normal;font-weight:normal;font-stretch:normal;letter-spacing:normal;word-spacing:normal;text-anchor:start;fill:none;stroke:#000000;stroke-linecap:butt;stroke-linejoin:miter;stroke-miterlimit:10.43299961;stroke-opacity:1;stroke-dasharray:none;stroke-dashoffset:0"><path
         style="fill:#000000;stroke-width:0"
         inkscape:connector-curvature="0"
         d="m 226.51,710.72 0.06,0.04 0.07,0.03 0.06,0.04 0.06,0.04 0.06,0.03 0.06,0.04 0.06,0.04 0.06,0.04 0.05,0.05 0.05,0.04 0.05,0.04 0.05,0.05 0.05,0.04 0.04,0.05 0.05,0.05 0.04,0.04 0.04,0.05 0.03,0.05 0.04,0.05 0.03,0.05 0.03,0.05 0.03,0.06 0.02,0.05 0.02,0.06 0.02,0.05 0.02,0.06 0.02,0.05 0.01,0.06 0.01,0.06 0,0.06 0.01,0.06 0,0.06 c 0,0.91 -0.89,1.48 -1.79,1.48 l -0.01,-0.25 c 0.73,0 1.36,-0.51 1.36,-1.23 0,-0.56 -0.39,-1.04 -0.98,-1.39 l -1.24,0.79 c -0.45,0.3 -0.49,0.64 -0.49,0.81 0,0.61 0.64,1.02 1.35,1.02 l 0.01,0.25 c -1,0 -1.8,-0.73 -1.8,-1.66 0,-0.18 0.02,-0.62 0.44,-1.09 0.11,-0.12 0.47,-0.37 0.72,-0.54 l 0.23,-0.15 c 0.28,-0.16 0.75,-0.46 1.23,-0.77 0.27,-0.19 0.74,-0.49 0.74,-1.09 0,-0.74 -0.74,-1.26 -1.56,-1.26 -0.86,0 -1.57,0.62 -1.57,1.44 0,0.58 0.32,1.22 1.16,1.68 h 0 l -0.23,0.15 c -0.57,-0.29 -1.43,-0.84 -1.43,-1.83 0,-1.05 1.02,-1.71 2.06,-1.71 1.12,0 2.07,0.82 2.07,1.88 0,0.36 -0.11,0.81 -0.49,1.23 -0.19,0.2 -0.35,0.3 -0.98,0.7 z"
         id="path5397" /></g>    <g
       style="font-style:normal;font-variant:normal;font-weight:normal;font-stretch:normal;letter-spacing:normal;word-spacing:normal;text-anchor:start;fill:none;stroke:#000000;stroke-linecap:butt;stroke-linejoin:miter;stroke-miterlimit:10.43299961;stroke-opacity:1;stroke-dasharray:none;stroke-dashoffset:0"
       ns0:preamble="/home/pat/Documents/Talks/2016/LCDM Jamboree/preamble.tex"
       ns0:text="$9$"
       word-spacing="normal"
       letter-spacing="normal"
       font-size-adjust="none"
       font-stretch="normal"
       font-weight="normal"
       font-variant="normal"
       font-style="normal"
       stroke-miterlimit="10.433"
       xml:space="preserve"
       transform="matrix(4.1601116,0,0,-4.1601116,-536.2999,3517.3458)"
       id="g5504"><path
         style="fill:#000000;stroke-width:0"
         inkscape:connector-curvature="0"
         id="path5506"
         d="m 227.08,710.28 v -0.31 c 0,-2.33 -1.03,-2.79 -1.61,-2.79 -0.17,0 -0.71,0.02 -0.97,0.36 0.43,0 0.51,0.29 0.51,0.46 0,0.31 -0.24,0.46 -0.45,0.46 -0.16,0 -0.46,-0.09 -0.46,-0.48 0,-0.67 0.54,-1.07 1.38,-1.07 1.28,0 2.5,1.35 2.5,3.48 0,2.68 -1.14,3.35 -2.03,3.35 -0.55,0 -1.04,-0.18 -1.46,-0.63 -0.41,-0.44 -0.64,-0.86 -0.64,-1.6 0,-1.25 0.88,-2.22 1.99,-2.22 l 0.01,0.23 c -0.16,0 -0.62,0 -0.93,0.63 -0.18,0.36 -0.18,0.86 -0.18,1.35 0,0.53 0,1 0.21,1.37 0.27,0.49 0.65,0.62 1,0.62 0.46,0 0.79,-0.33 0.95,-0.78 0.12,-0.32 0.16,-0.95 0.16,-1.4 0,-0.83 -0.33,-1.79 -1.21,-1.79 h 0 l -0.01,-0.23 c 0.61,0 1.01,0.42 1.24,0.99 z" /></g>    <g
       id="g5611"
       transform="matrix(4.1601116,0,0,-4.1601116,-597.64903,3578.1077)"
       xml:space="preserve"
       stroke-miterlimit="10.433"
       font-style="normal"
       font-variant="normal"
       font-weight="normal"
       font-stretch="normal"
       font-size-adjust="none"
       letter-spacing="normal"
       word-spacing="normal"
       ns0:text="$0$"
       ns0:preamble="/home/pat/Documents/Talks/2016/LCDM Jamboree/preamble.tex"
       style="font-style:normal;font-variant:normal;font-weight:normal;font-stretch:normal;letter-spacing:normal;word-spacing:normal;text-anchor:start;fill:none;stroke:#000000;stroke-linecap:butt;stroke-linejoin:miter;stroke-miterlimit:10.43299961;stroke-opacity:1;stroke-dasharray:none;stroke-dashoffset:0"><path
         style="fill:#000000;stroke-width:0"
         inkscape:connector-curvature="0"
         d="m 228.01,710.3 0,0.15 0,0.15 -0.01,0.15 0,0.15 -0.01,0.15 -0.02,0.14 -0.01,0.15 -0.02,0.15 -0.02,0.14 -0.03,0.15 -0.03,0.14 -0.04,0.15 -0.04,0.14 -0.05,0.14 -0.06,0.14 -0.03,0.07 -0.03,0.07 c -0.46,0.95 -1.27,1.11 -1.69,1.11 -0.6,0 -1.32,-0.26 -1.73,-1.18 -0.32,-0.69 -0.37,-1.46 -0.37,-2.26 0,-0.74 0.04,-1.64 0.45,-2.39 0.43,-0.81 1.15,-1 1.64,-1 v 0.21 c -0.39,0 -0.98,0.25 -1.15,1.21 -0.11,0.59 -0.11,1.51 -0.11,2.09 0,0.64 0,1.29 0.08,1.83 0.18,1.18 0.93,1.27 1.18,1.27 0.33,0 0.98,-0.18 1.17,-1.16 0.1,-0.56 0.1,-1.31 0.1,-1.94 0,-0.74 0,-1.42 -0.11,-2.05 -0.15,-0.95 -0.71,-1.25 -1.16,-1.25 h 0 v -0.21 c 0.54,0 1.29,0.2 1.73,1.15 0.32,0.68 0.37,1.46 0.37,2.24 z"
         id="path5613" /></g>    <g
       style="font-style:normal;font-variant:normal;font-weight:normal;font-stretch:normal;letter-spacing:normal;word-spacing:normal;text-anchor:start;fill:#ff0000;fill-opacity:1;fill-rule:evenodd;stroke:#000000;stroke-linecap:butt;stroke-linejoin:miter;stroke-miterlimit:10.43299961;stroke-opacity:1;stroke-dasharray:none;stroke-dashoffset:0"
       ns0:preamble="/home/pat/texmf/tex/latex/inkscape_preamble.tex"
       ns0:text="\\ttfamily\n\\fontseries{b}\\selectfont DDCalc"
       word-spacing="normal"
       letter-spacing="normal"
       font-size-adjust="none"
       font-stretch="normal"
       font-weight="normal"
       font-variant="normal"
       font-style="normal"
       stroke-miterlimit="10.433"
       xml:space="preserve"
       transform="matrix(5.8552755,0,0,-5.8552755,-1008.7367,4513.3773)"
       id="g6344"><path
         id="path6346"
         d="m 228.28,710.11 -0.01,0.15 0,0.15 -0.02,0.15 -0.01,0.15 -0.03,0.14 -0.02,0.14 -0.03,0.14 -0.04,0.14 -0.04,0.14 -0.05,0.13 -0.05,0.13 -0.05,0.12 -0.06,0.12 -0.06,0.12 -0.07,0.12 -0.07,0.1 -0.07,0.11 -0.08,0.1 -0.08,0.09 -0.08,0.09 -0.09,0.09 -0.1,0.07 -0.09,0.07 -0.1,0.07 -0.1,0.06 -0.11,0.05 -0.11,0.04 -0.11,0.04 -0.11,0.03 -0.12,0.02 -0.12,0.01 -0.12,0.01 -0.18,-0.75 c 1.05,0 1.56,-1.25 1.56,-2.34 h 0 c 0,-1.09 -0.53,-2.24 -1.56,-2.24 h -0.86 v 4.58 h 0.86 l 0.18,0.75 h -2 c -0.19,0 -0.48,-0.02 -0.48,-0.38 0,-0.36 0.3,-0.37 0.48,-0.37 h 0.14 v -4.58 h -0.14 c -0.19,0 -0.48,-0.01 -0.48,-0.38 0,-0.35 0.3,-0.37 0.48,-0.37 h 2 c 1.3,0 2.2,1.4 2.2,2.99 z"
         style="fill:#ff0000;stroke-width:0"
         inkscape:connector-curvature="0" /><path
         id="path6348"
         d="m 233.51,710.11 0,0.15 -0.01,0.15 -0.01,0.15 -0.02,0.15 -0.02,0.14 -0.03,0.14 -0.03,0.14 -0.04,0.14 -0.04,0.14 -0.05,0.13 -0.05,0.13 -0.05,0.12 -0.06,0.12 -0.06,0.12 -0.07,0.12 -0.07,0.1 -0.07,0.11 -0.08,0.1 -0.08,0.09 -0.08,0.09 -0.09,0.09 -0.09,0.07 -0.1,0.07 -0.1,0.07 -0.1,0.06 -0.11,0.05 -0.11,0.04 -0.11,0.04 -0.11,0.03 -0.12,0.02 -0.12,0.01 -0.12,0.01 -0.18,-0.75 c 1.05,0 1.56,-1.25 1.56,-2.34 h 0 c 0,-1.09 -0.53,-2.24 -1.56,-2.24 h -0.86 v 4.58 h 0.86 l 0.18,0.75 h -2 c -0.19,0 -0.48,-0.02 -0.48,-0.38 0,-0.36 0.3,-0.37 0.48,-0.37 h 0.14 v -4.58 h -0.14 c -0.19,0 -0.48,-0.01 -0.48,-0.38 0,-0.35 0.3,-0.37 0.48,-0.37 h 2 c 1.3,0 2.2,1.4 2.2,2.99 z"
         style="fill:#ff0000;stroke-width:0"
         inkscape:connector-curvature="0" /><path
         id="path6350"
         d="m 238.73,708.83 0,0.02 0,0.02 0,0.02 -0.01,0.01 0,0.02 0,0.01 0,0.02 0,0.01 -0.01,0.02 0,0.01 -0.01,0.01 0,0.01 0,0.02 -0.01,0.01 0,0.01 -0.01,0.01 0,0.01 -0.01,0.01 -0.01,0.01 0,0.01 -0.01,0 -0.01,0.01 -0.01,0.02 -0.01,0.01 -0.02,0.01 -0.02,0.01 -0.01,0.01 -0.02,0.01 -0.02,0.01 -0.01,0.01 -0.02,0 -0.02,0.01 -0.02,0 -0.01,0 -0.02,0 -0.02,0.01 -0.01,0 -0.02,0 -0.02,0 -0.01,0 -0.01,0 -0.02,0 -0.01,0 c -0.11,0 -0.38,0 -0.41,-0.35 -0.06,-0.89 -0.79,-1.11 -1.17,-1.11 -0.85,0 -1.63,1 -1.63,2.4 0,1.39 0.79,2.4 1.62,2.4 0.55,0 1.05,-0.43 1.17,-1.17 0.04,-0.2 0.07,-0.38 0.42,-0.38 0.41,0 0.42,0.24 0.42,0.48 v 1.34 c 0,0.19 -0.01,0.47 -0.37,0.47 -0.19,0 -0.28,-0.12 -0.34,-0.21 -0.02,-0.02 -0.02,-0.04 -0.1,-0.21 -0.33,0.24 -0.76,0.42 -1.23,0.42 -1.29,0 -2.42,-1.33 -2.42,-3.14 0,-1.81 1.13,-3.14 2.42,-3.14 1.17,0 2.04,0.9 2.04,1.81 z"
         style="fill:#ff0000;stroke-width:0"
         inkscape:connector-curvature="0" /><path
         id="path6352"
         d="m 244.31,707.5 0,0.02 0,0.01 0,0.02 -0.01,0.02 0,0.01 0,0.01 0,0.02 -0.01,0.01 0,0.01 0,0.02 -0.01,0.01 0,0.01 -0.01,0.01 0,0.01 -0.01,0.01 0,0.01 -0.01,0.01 0,0.01 -0.01,0.01 -0.01,0.01 -0.01,0.01 -0.01,0.02 -0.02,0.01 -0.02,0.01 -0.01,0.01 -0.02,0.01 -0.02,0.01 -0.02,0.01 -0.02,0 -0.01,0.01 -0.02,0 -0.02,0.01 -0.02,0 -0.02,0 -0.02,0.01 -0.02,0 -0.02,0 -0.02,0 -0.02,0 -0.02,0 -0.01,0 -0.02,0 c -0.29,0 -0.43,0.03 -0.51,0.06 v 2.04 c 0,0.71 -0.54,1.57 -1.99,1.57 -0.45,0 -1.48,-0.03 -1.48,-0.79 0,-0.34 0.24,-0.52 0.51,-0.52 0.17,0 0.49,0.1 0.5,0.53 0,0 0.32,0.03 0.48,0.03 0.66,0 1.13,-0.25 1.16,-0.83 l -0.01,-0.73 v -0.73 c 0,-0.19 0,-0.38 -0.33,-0.53 -0.34,-0.16 -0.76,-0.16 -0.84,-0.16 -0.54,0 -0.91,0.29 -0.91,0.64 0,0.43 0.78,0.73 2.08,0.78 l 0.01,0.73 c -1.72,-0.04 -2.91,-0.57 -2.91,-1.51 0,-0.71 0.64,-1.38 1.68,-1.38 0.35,0 0.94,0.07 1.4,0.34 0.24,-0.26 0.69,-0.29 1.06,-0.29 0.33,0 0.57,0.03 0.57,0.38 z"
         style="fill:#ff0000;stroke-width:0"
         inkscape:connector-curvature="0" /><path
         id="path6354"
         d="m 249.03,707.49 0,0.02 0,0.02 0,0.01 0,0.02 0,0.01 -0.01,0.02 0,0.01 0,0.01 -0.01,0.02 0,0.01 0,0.01 -0.01,0.01 0,0.01 -0.01,0.02 0,0.01 -0.01,0.01 0,0.01 -0.01,0.01 0,0 -0.01,0.01 -0.01,0.02 -0.02,0.01 -0.01,0.02 -0.02,0.01 -0.02,0.01 -0.01,0.01 -0.02,0.01 -0.02,0.01 -0.02,0 -0.02,0.01 -0.02,0 -0.02,0.01 -0.02,0 -0.02,0 -0.01,0 -0.02,0.01 -0.02,0 -0.02,0 -0.04,0 -0.02,0 -0.02,0 h -1.18 v 4.85 c 0,0.36 -0.07,0.48 -0.47,0.48 h -1.53 c -0.19,0 -0.48,-0.02 -0.48,-0.38 0,-0.36 0.3,-0.37 0.47,-0.37 h 1.18 v -4.58 h -1.17 c -0.19,0 -0.48,-0.01 -0.48,-0.38 0,-0.35 0.3,-0.37 0.47,-0.37 h 3.19 c 0.18,0 0.47,0.02 0.47,0.37 z"
         style="fill:#ff0000;stroke-width:0"
         inkscape:connector-curvature="0" /><path
         id="path6356"
         d="m 254.25,708.26 0,0.01 0,0.02 0,0.01 0,0.02 -0.01,0.01 0,0.01 0,0.02 -0.01,0.01 0,0.01 0,0.01 -0.01,0.01 0,0.02 -0.01,0.01 0,0.01 -0.01,0.01 -0.01,0 0,0.01 -0.01,0.01 -0.01,0.01 0,0.01 -0.02,0.01 -0.01,0.02 -0.02,0.01 -0.02,0.01 -0.01,0.01 -0.02,0.01 -0.02,0.01 -0.02,0 -0.02,0.01 -0.01,0 -0.02,0.01 -0.02,0 -0.02,0.01 -0.01,0 -0.02,0 -0.01,0 -0.02,0 -0.01,0 -0.01,0 -0.01,0 -0.01,0 0,0 -0.01,0 c -0.19,0 -0.31,-0.01 -0.4,-0.25 -0.05,-0.12 -0.25,-0.54 -0.88,-0.54 -0.78,0 -1.44,0.65 -1.44,1.48 0,0.45 0.26,1.5 1.5,1.5 l 0.51,-0.01 c 0.01,-0.4 0.22,-0.55 0.49,-0.55 0.28,0 0.52,0.19 0.52,0.52 0,0.76 -1.05,0.79 -1.52,0.79 -1.72,0 -2.33,-1.37 -2.33,-2.25 0,-1.2 0.95,-2.22 2.21,-2.22 1.42,0 1.76,1.02 1.76,1.19 z"
         style="fill:#ff0000;stroke-width:0"
         inkscape:connector-curvature="0" /></g>  </g>
</svg>
